<svg xmlns="http://www.w3.org/2000/svg" width="19" height="15.774" viewBox="0 0 19 15.774">
  <g id="Group_29" data-name="Group 29" transform="translate(-4615.952 -657.441)">
    <g id="Group_24" data-name="Group 24" transform="translate(4615.952 663.947)">
      <g id="Group_23" data-name="Group 23" transform="translate(0 0)">
        <path id="Path_492" data-name="Path 492" d="M272.079,436.344h16.267a1.381,1.381,0,0,0,0-2.763H272.079a1.381,1.381,0,0,0,0,2.763Z" transform="translate(-270.712 -433.581)" fill="#fff"/>
      </g>
    </g>
    <g id="Group_26" data-name="Group 26" transform="translate(4625.534 657.441)">
      <g id="Group_25" data-name="Group 25" transform="translate(0 0)">
        <path id="Path_493" data-name="Path 493" d="M469.456,302.344l5.216,5.166,1.445,1.431a1.381,1.381,0,0,0,1.953-1.953l-5.216-5.166-1.445-1.431a1.381,1.381,0,1,0-1.953,1.953Z" transform="translate(-469.057 -299.992)" fill="#fff"/>
      </g>
    </g>
    <g id="Group_28" data-name="Group 28" transform="translate(4625.534 663.867)">
      <g id="Group_27" data-name="Group 27" transform="translate(0 0)">
        <path id="Path_494" data-name="Path 494" d="M471.409,442.615l5.216-5.166,1.445-1.431a1.381,1.381,0,0,0-1.953-1.953L470.9,439.23l-1.445,1.431a1.381,1.381,0,0,0,1.953,1.953Z" transform="translate(-469.056 -433.665)" fill="#fff"/>
      </g>
    </g>
  </g>
</svg>
