<?xml version="1.0" standalone="no"?>
<!DOCTYPE svg PUBLIC "-//W3C//DTD SVG 20010904//EN"
 "http://www.w3.org/TR/2001/REC-SVG-20010904/DTD/svg10.dtd">
<svg version="1.0" xmlns="http://www.w3.org/2000/svg"
 width="466.000000pt" height="429.000000pt" viewBox="0 0 466.000000 429.000000"
 preserveAspectRatio="xMidYMid meet">

<g transform="translate(0.000000,429.000000) scale(0.100000,-0.100000)"
fill="#000000" stroke="none">
<path d="M1835 4220 c-27 -4 -45 -8 -40 -9 6 -2 -1 -6 -15 -10 -14 -4 -27 -16
-29 -26 -4 -21 -6 -24 -103 -96 -53 -40 -70 -58 -78 -88 -5 -21 -19 -46 -31
-57 -12 -10 -35 -46 -51 -78 -17 -33 -48 -83 -69 -111 -52 -69 -83 -147 -109
-280 -12 -58 6 -197 35 -264 23 -55 35 -114 70 -336 15 -92 43 -188 66 -225
41 -68 47 -88 52 -205 5 -85 13 -143 31 -200 13 -44 34 -111 46 -150 12 -38
23 -75 25 -82 2 -6 13 -16 23 -22 18 -10 19 -8 11 34 -9 46 -32 100 -54 121
-14 15 -45 207 -45 282 0 29 9 103 20 165 27 158 41 351 29 411 -5 27 -21 79
-35 115 -25 63 -26 69 -16 157 18 161 87 262 220 326 60 28 75 31 155 30 48
-1 97 -7 110 -14 12 -6 54 -17 92 -24 39 -6 113 -21 165 -32 52 -11 158 -31
235 -43 77 -12 154 -28 172 -35 32 -14 73 -60 132 -146 17 -26 47 -59 66 -74
l35 -26 40 21 c22 12 46 21 52 21 8 0 9 -38 2 -142 -13 -210 -8 -391 13 -499
13 -66 18 -140 18 -246 0 -166 7 -168 34 -13 9 52 19 96 24 98 4 1 6 0 5 -1
-2 -2 4 -12 12 -22 8 -10 14 -26 12 -37 -2 -10 2 -18 7 -18 15 0 14 132 -1
165 -13 29 -21 31 -38 10 -24 -29 -32 -16 -26 39 4 29 14 78 21 107 8 30 15
81 15 114 0 109 21 228 56 330 45 128 52 171 53 328 1 119 -1 131 -25 180 -35
68 -90 134 -127 154 -17 8 -40 27 -52 42 -13 14 -56 43 -96 65 -41 21 -93 57
-115 78 -25 23 -49 38 -60 37 -21 -4 -84 22 -84 33 0 4 15 2 33 -4 17 -5 40
-12 50 -15 9 -3 17 -2 17 1 0 13 -74 80 -77 70 -4 -13 -50 -6 -59 8 -4 6 -1
14 6 18 9 6 4 13 -19 24 -17 9 -31 21 -31 26 0 18 -19 10 -25 -11 -6 -19 -12
-21 -59 -15 -28 4 -70 14 -93 21 -23 8 -50 12 -59 8 -9 -3 -19 -1 -23 6 -6 8
-17 8 -44 -4 -34 -14 -39 -14 -74 4 -33 16 -60 19 -193 18 -85 0 -177 -3 -205
-7z m882 -176 c-3 -3 -12 -4 -19 -1 -8 3 -5 6 6 6 11 1 17 -2 13 -5z"/>
<path d="M2515 4220 c3 -5 15 -10 26 -10 10 0 19 5 19 10 0 6 -12 10 -26 10
-14 0 -23 -4 -19 -10z"/>
<path d="M1905 2973 c-47 -5 -131 -30 -161 -50 -51 -33 -97 -131 -56 -119 9 3
35 8 57 12 l40 7 -32 -27 c-46 -38 -46 -91 -2 -135 17 -17 34 -31 39 -31 15 0
60 27 54 33 -3 3 5 11 17 18 16 8 24 9 27 1 7 -22 44 -62 57 -62 8 0 17 -5 21
-11 10 -17 -75 -6 -115 14 -41 21 -41 2 1 -38 28 -26 38 -30 87 -29 68 2 112
19 171 69 51 42 84 95 94 149 4 21 13 36 21 36 8 0 19 8 24 19 8 15 5 24 -16
45 -14 15 -38 29 -52 33 -14 3 -36 14 -47 25 -12 11 -43 26 -69 34 -47 14 -75
15 -160 7z m42 -206 c-2 -6 -21 -16 -43 -21 -21 -5 -54 -17 -72 -28 -18 -10
-35 -18 -38 -18 -13 0 21 43 46 58 33 21 113 27 107 9z"/>
<path d="M2675 2960 c-33 -11 -65 -20 -72 -20 -6 0 -39 -18 -72 -40 -65 -43
-82 -74 -63 -113 6 -12 13 -38 16 -58 10 -58 64 -111 148 -146 40 -17 94 -33
119 -37 43 -6 48 -4 77 26 18 17 32 35 32 40 0 4 10 8 23 8 29 0 40 8 63 48
18 32 18 34 1 63 -25 45 -22 59 13 59 37 0 39 20 9 70 -36 58 -66 79 -137 95
-37 9 -74 17 -82 20 -8 2 -42 -5 -75 -15z m117 -212 c-9 -9 -15 -9 -24 0 -9 9
-7 12 12 12 19 0 21 -3 12 -12z m70 -15 c30 -36 28 -43 -6 -22 -20 12 -39 25
-42 30 -10 17 33 9 48 -8z m-222 -67 c0 -5 -7 -3 -15 4 -8 7 -12 17 -9 22 7
10 24 -9 24 -26z m185 4 c9 -15 -11 -37 -40 -42 -24 -5 -24 -5 -8 23 18 30 37
37 48 19z"/>
<path d="M1420 2551 c-16 -40 -18 -147 -2 -163 10 -10 11 -3 6 35 -4 31 -3 47
4 47 6 0 14 9 17 20 4 11 11 18 16 15 5 -4 9 0 9 9 0 8 6 16 13 19 8 3 7 10
-7 23 -10 11 -16 13 -12 7 4 -7 2 -13 -3 -13 -6 0 -11 7 -11 15 0 25 -17 17
-30 -14z"/>
<path d="M2450 2238 c-22 -11 -49 -31 -59 -44 -26 -33 -37 -30 -87 16 -53 49
-98 55 -116 15 -8 -18 -8 -28 1 -39 10 -12 8 -24 -9 -61 -21 -46 -46 -64 -99
-71 -63 -8 -116 -82 -105 -149 8 -55 19 -63 47 -37 29 28 197 57 277 47 30 -3
116 -7 190 -9 74 -2 142 -5 150 -6 8 -2 29 0 47 4 29 7 33 4 50 -26 l18 -33 3
66 c2 36 -2 77 -7 91 -13 34 -88 75 -134 73 -24 0 -37 4 -37 12 0 7 -11 20
-25 29 -30 19 -41 50 -25 69 17 20 5 61 -19 68 -11 3 -38 -4 -61 -15z m42
-200 c10 0 20 -3 23 -9 4 -5 18 -9 33 -9 15 0 42 -14 62 -31 l35 -30 -75 7
c-135 12 -292 10 -320 -4 -29 -15 -150 -26 -150 -13 0 10 28 34 60 49 43 21
93 33 155 39 33 3 62 7 64 9 3 3 25 1 50 -2 26 -4 54 -7 63 -6z"/>
<path d="M3051 2149 c-14 -39 -15 -72 -2 -49 9 17 23 80 17 80 -2 0 -9 -14
-15 -31z"/>
<path d="M3025 2054 c-4 -16 -11 -42 -16 -58 -14 -45 -12 -61 6 -46 8 7 14 18
13 24 -1 6 2 30 6 54 9 48 1 71 -9 26z"/>
<path d="M1690 1870 c0 -17 4 -38 9 -48 5 -9 19 -39 31 -67 54 -123 166 -291
240 -360 116 -108 159 -156 154 -170 -4 -8 -1 -15 6 -15 6 0 9 -4 6 -9 -4 -5
-2 -21 3 -34 10 -25 9 -25 -30 -21 -21 3 -39 1 -39 -4 0 -5 30 -22 68 -39 102
-46 194 -33 353 47 109 56 339 234 339 263 0 7 -4 7 -12 -1 -7 -7 -17 -8 -30
-1 -24 13 -23 18 12 59 35 41 38 60 10 60 -11 0 -20 6 -20 13 0 7 -6 21 -13
31 -17 23 -41 12 -68 -30 -12 -20 -29 -34 -40 -34 -11 0 -19 -7 -19 -16 0 -12
-10 -15 -50 -13 -27 2 -53 0 -56 -4 -4 -4 -23 -4 -44 -1 -24 4 -40 1 -47 -8
-8 -9 -28 -12 -60 -10 -26 1 -56 3 -65 3 -10 0 -18 6 -18 13 0 8 -7 19 -15 26
-9 7 -15 8 -15 2 0 -14 -32 -25 -39 -13 -4 5 -22 4 -46 -5 -55 -19 -78 -17
-93 6 -7 11 -17 20 -23 20 -14 0 -39 25 -39 39 0 6 -4 11 -10 11 -5 0 -10 9
-10 20 0 10 -6 23 -13 27 -8 4 -17 17 -21 28 -8 19 -9 19 -19 -5 -6 -14 -14
-27 -17 -30 -4 -3 -9 -13 -13 -22 -4 -11 -13 -15 -27 -11 -17 4 -21 12 -17 29
2 13 1 24 -4 24 -4 0 -11 9 -14 20 -3 11 -12 20 -18 20 -7 0 -21 15 -31 34
-10 18 -29 39 -42 45 -13 6 -24 15 -24 20 0 13 -60 141 -65 141 -3 0 -5 -14
-5 -30z m250 -330 c0 -5 -4 -10 -10 -10 -5 0 -10 5 -10 10 0 6 5 10 10 10 6 0
10 -4 10 -10z"/>
<path d="M2305 1770 c-11 -5 -28 -11 -38 -14 -16 -5 -14 -10 13 -48 17 -23 46
-53 65 -66 39 -28 48 -25 113 36 36 33 45 85 16 96 -23 9 -146 6 -169 -4z"/>
<path d="M2830 1625 c0 -8 9 -15 20 -15 24 0 27 15 4 24 -22 9 -24 8 -24 -9z"/>
<path d="M2972 1220 c0 -19 2 -27 5 -17 2 9 2 25 0 35 -3 9 -5 1 -5 -18z"/>
<path d="M2045 1161 c-3 -5 -1 -12 5 -16 5 -3 10 1 10 9 0 18 -6 21 -15 7z"/>
<path d="M2040 939 c-14 -11 -51 -45 -83 -76 l-57 -56 31 -19 c36 -22 58 -14
34 12 -11 12 -13 20 -6 25 6 3 11 3 11 -2 0 -4 5 0 11 10 5 9 7 22 3 29 -4 7
-3 8 4 4 7 -4 12 -1 12 9 0 12 5 15 16 11 9 -4 22 -2 28 2 14 12 86 3 86 -10
0 -5 5 -6 10 -3 14 8 13 36 -1 33 -6 -2 -16 6 -22 17 -24 40 -41 43 -77 14z"/>
<path d="M2455 940 c9 -15 -21 -41 -39 -34 -9 3 -16 13 -16 21 0 8 -4 12 -9 9
-13 -8 -7 -36 10 -47 24 -15 85 -10 100 8 8 9 12 19 10 22 -16 23 -70 43 -56
21z"/>
<path d="M2517 904 c-7 -7 14 -44 26 -44 5 0 15 -7 23 -15 14 -13 13 -15 -5
-15 -12 0 -21 -4 -21 -10 0 -13 33 -13 47 1 7 7 12 5 17 -6 4 -12 2 -16 -8
-12 -19 8 -29 -22 -14 -40 10 -13 8 -19 -11 -34 -13 -11 -21 -22 -18 -25 8 -8
57 45 57 62 0 7 8 17 17 22 14 8 9 18 -37 66 -53 56 -61 62 -73 50z"/>
<path d="M2216 885 c4 -8 10 -12 15 -9 11 6 2 24 -11 24 -5 0 -7 -7 -4 -15z"/>
<path d="M2315 890 c-3 -5 1 -10 9 -10 9 0 16 5 16 10 0 6 -4 10 -9 10 -6 0
-13 -4 -16 -10z"/>
<path d="M2370 849 c0 -5 5 -7 10 -4 6 3 10 8 10 11 0 2 -4 4 -10 4 -5 0 -10
-5 -10 -11z"/>
<path d="M2505 800 c-3 -5 -1 -10 4 -10 6 0 11 5 11 10 0 6 -2 10 -4 10 -3 0
-8 -4 -11 -10z"/>
<path d="M2460 769 c0 -5 5 -7 10 -4 6 3 10 8 10 11 0 2 -4 4 -10 4 -5 0 -10
-5 -10 -11z"/>
<path d="M2085 760 c-3 -5 -1 -10 4 -10 6 0 11 5 11 10 0 6 -2 10 -4 10 -3 0
-8 -4 -11 -10z"/>
<path d="M2540 760 c-13 -8 -12 -10 3 -10 9 0 17 5 17 10 0 12 -1 12 -20 0z"/>
<path d="M2415 750 c-3 -5 -1 -10 4 -10 6 0 11 5 11 10 0 6 -2 10 -4 10 -3 0
-8 -4 -11 -10z"/>
<path d="M2500 730 c0 -5 5 -10 11 -10 5 0 7 5 4 10 -3 6 -8 10 -11 10 -2 0
-4 -4 -4 -10z"/>
<path d="M2460 700 c0 -5 7 -10 16 -10 8 0 12 5 9 10 -3 6 -10 10 -16 10 -5 0
-9 -4 -9 -10z"/>
<path d="M2527 693 c-4 -3 -7 -11 -7 -17 0 -6 5 -5 12 2 6 6 9 14 7 17 -3 3
-9 2 -12 -2z"/>
<path d="M2180 629 c0 -5 5 -7 10 -4 6 3 10 8 10 11 0 2 -4 4 -10 4 -5 0 -10
-5 -10 -11z"/>
<path d="M2455 630 c-3 -5 -1 -10 4 -10 6 0 11 5 11 10 0 6 -2 10 -4 10 -3 0
-8 -4 -11 -10z"/>
<path d="M2370 461 c55 -18 80 -17 62 1 -6 6 -34 12 -64 13 l-53 3 55 -17z"/>
<path d="M2335 220 c3 -5 8 -10 11 -10 2 0 4 5 4 10 0 6 -5 10 -11 10 -5 0 -7
-4 -4 -10z"/>
<path d="M2365 60 c3 -5 8 -10 11 -10 2 0 4 5 4 10 0 6 -5 10 -11 10 -5 0 -7
-4 -4 -10z"/>
</g>
</svg>
